<svg id="Layer_1" data-name="Layer 1" xmlns="http://www.w3.org/2000/svg" viewBox="0 0 1000 1000"><title>200407WVV.ito_Visual_Image</title><path d="M264,948.07Q335.21,977.74,406.89,978a352.5,352.5,0,0,0,139.27-28.24q60-25.28,110-71.46c2.73-2.52-125.16-141-125.16-141A185.3,185.3,0,0,1,474.71,774a172.9,172.9,0,0,1-70.23,13.28q-36.45-.74-72.66-16.17t-68.06-47.31q-31.38-31.4-47.07-67.83t-16.17-72.65a179.16,179.16,0,0,1,13.28-70.24,181.29,181.29,0,0,1,36.48-56.55s-137.48-126.92-140-124.18q-46,50.22-70,111.46-27,69-26.31,141.2T43.87,727.94Q73.09,798.65,131,856.59,192.8,918.38,264,948.07Z"/><path d="M730.29,46.38Q659.09,16.71,587.4,16.45A352.5,352.5,0,0,0,448.13,44.69q-60,25.28-110,71.47c-2.73,2.51,125.16,141,125.16,141a185.15,185.15,0,0,1,56.32-36.73,172.9,172.9,0,0,1,70.23-13.28q36.45.74,72.66,16.18t68.06,47.3q31.4,31.39,47.07,67.83t16.17,72.65a179.16,179.16,0,0,1-13.28,70.24A181.29,181.29,0,0,1,744,537.88S881.49,664.8,884,662.06q46-50.22,70-111.46,27-69,26.31-141.2T950.42,266.51Q921.2,195.8,863.28,137.86,801.5,76.07,730.29,46.38Z"/></svg>