<svg id="Layer_1" data-name="Layer 1" xmlns="http://www.w3.org/2000/svg" viewBox="0 0 1000 1000"><defs><style>.cls-1{fill:#fff;}</style></defs><title>200407WVV.ito_Visual_Image</title><path class="cls-1" d="M162.5,238.25a67.41,67.41,0,0,1-5.6,27.42,70.38,70.38,0,0,1-15.26,22.21,73.66,73.66,0,0,1-22.59,15.06,70.89,70.89,0,0,1-55.23,0,70.7,70.7,0,0,1-37.46-37.27,69.44,69.44,0,0,1,0-54.64,70.25,70.25,0,0,1,37.46-37.47,70.89,70.89,0,0,1,55.23,0,74,74,0,0,1,22.59,15.07A69.88,69.88,0,0,1,156.9,211,67.88,67.88,0,0,1,162.5,238.25Zm-18.15,526H38.14V350.64H144.35Z"/><path class="cls-1" d="M425.91,764.28a179.47,179.47,0,0,1-71.84-14.49,186.85,186.85,0,0,1-98.68-98.67,179.64,179.64,0,0,1-14.48-71.84V456.46H189.54v-105h51.37V186.12H346V351.41H505.85v105H346V579.28a78.4,78.4,0,0,0,6.18,31.09,79.32,79.32,0,0,0,17,25.3,81.55,81.55,0,0,0,25.49,17.18,77.66,77.66,0,0,0,31.29,6.38h79.94v105Z"/><path class="cls-1" d="M964.67,553.79q0,46.35-16.6,86.32t-45.19,69.13a211.45,211.45,0,0,1-67,46Q797.44,772,753.41,772a202.64,202.64,0,0,1-82.07-16.8,213.64,213.64,0,0,1-67.2-46q-28.77-29.16-45.38-69.13t-16.6-86.32q0-47.11,16.6-87.28t45.38-69.33a211.14,211.14,0,0,1,67.2-45.77,204.86,204.86,0,0,1,82.07-16.6q44,0,82.46,15.64a199.5,199.5,0,0,1,67,44.41q28.57,28.78,45.19,69.14T964.67,553.79Zm-106.21,0q0-25.49-8.3-46.15a109.8,109.8,0,0,0-22.59-35.53,97.74,97.74,0,0,0-33.41-22.79,108.77,108.77,0,0,0-81.49,0,95.76,95.76,0,0,0-33.22,22.79,108.57,108.57,0,0,0-22.2,35.53q-8.12,20.65-8.11,46.15a119.36,119.36,0,0,0,8.11,44.41,111.4,111.4,0,0,0,22.2,35.54,104,104,0,0,0,33.22,23.75,97.32,97.32,0,0,0,40.74,8.69,103.36,103.36,0,0,0,40.75-8.11,101.37,101.37,0,0,0,33.41-22.79,107.09,107.09,0,0,0,22.59-35.53Q858.46,578.9,858.46,553.79Z"/></svg>