<svg id="Layer_1" data-name="Layer 1" xmlns="http://www.w3.org/2000/svg" viewBox="0 0 1000 1000"><defs><style>.cls-1{fill:#fff;}</style></defs><title>200407WVV.ito_Visual_Image</title><path class="cls-1" d="M266.45,944.32Q337.82,973.75,409.68,974a356.41,356.41,0,0,0,139.59-28q60.12-25.07,110.29-70.86c2.74-2.5-125.45-139.81-125.45-139.81a186,186,0,0,1-56.45,36.42,174.74,174.74,0,0,1-70.4,13.16q-36.52-.72-72.82-16T266.21,722Q234.76,690.83,219,654.69t-16.21-72.05A176.19,176.19,0,0,1,216.13,513a179.69,179.69,0,0,1,36.57-56.08S114.89,331.05,112.38,333.76q-46.14,49.8-70.2,110.53-27.09,68.46-26.37,140t30,141.7q29.28,70.13,87.34,127.58Q195.07,914.88,266.45,944.32Z"/><path class="cls-1" d="M733.84,50.13Q662.47,20.7,590.61,20.45A356.41,356.41,0,0,0,451,48.46Q390.9,73.53,340.73,119.33c-2.74,2.49,125.45,139.8,125.45,139.8a186,186,0,0,1,56.45-36.42A174.91,174.91,0,0,1,593,209.55q36.53.72,72.82,16t68.23,46.92q31.45,31.13,47.18,67.26t16.21,72.05a176.19,176.19,0,0,1-13.31,69.65,179.69,179.69,0,0,1-36.57,56.08S885.4,663.41,887.91,660.69q46.14-49.8,70.2-110.53,27.09-68.46,26.37-140t-30-141.7q-29.28-70.12-87.34-127.58Q805.22,79.58,733.84,50.13Z"/></svg>